<svg width="305" height="306" viewBox="0 0 305 306" fill="none" xmlns="http://www.w3.org/2000/svg">
<path d="M259.67 0.44043H45C20.1472 0.44043 0 20.5876 0 45.4404V260.11C0 284.963 20.1472 305.11 45 305.11H259.67C284.523 305.11 304.67 284.963 304.67 260.11V45.4404C304.67 20.5876 284.523 0.44043 259.67 0.44043Z" fill="url(#paint0_linear_1360_259)"/>
<path d="M106.6 197.93C106.51 197.94 106.42 197.96 106.34 197.97C111.28 205.19 116.89 211.97 123.19 218.28C127.68 222.78 132.43 226.94 137.41 230.79C124.13 220.18 114.11 208.72 106.6 197.93Z" fill="white"/>
<path d="M154.4 89.0004V66.6703C154.4 66.6703 154.38 66.6604 154.37 66.6504C154.06 66.9004 153.77 67.1103 153.49 67.3503C150.61 69.7903 147.58 72.0504 144.44 74.1404C134.39 80.8204 123.52 85.7504 111.95 89.1404C104.87 91.2104 97.6601 92.6404 90.3301 93.4904C87.1601 93.8604 83.9901 94.1404 80.8001 94.2504C80.3701 94.2604 79.9201 94.1904 79.4801 94.4604C79.4501 94.5804 79.4101 94.7104 79.4001 94.8604C79.3301 96.0704 79.2301 97.2703 79.1901 98.4803C79.0301 103.9 79.0201 109.32 79.3201 114.74C79.5601 118.91 79.9201 123.07 80.4301 127.21C81.0301 132.12 81.8401 136.99 82.8501 141.84C83.5801 145.36 84.4301 148.85 85.3801 152.3L154.39 89.0104L154.4 89.0004Z" fill="white"/>
<path d="M137.47 230.84C142.61 234.81 148.01 238.46 153.64 241.8C153.86 241.93 154.09 242.05 154.39 242.21V214.11C149.65 218.79 144.06 224.32 137.47 230.84Z" fill="white"/>
<path d="M180.69 188.22C180.42 188.47 177.8 190.99 154.4 214.11V242.21C154.81 241.98 155.16 241.79 155.5 241.57C158.22 239.84 160.98 238.17 163.65 236.37C176.33 227.77 187.48 217.52 196.94 205.46C205.87 194.07 212.87 181.61 218.11 168.18C209.23 171.76 199.12 175.37 188.11 178.85C186.13 182.35 183.62 185.51 180.69 188.23V188.22Z" fill="white"/>
<path d="M187.41 139.65C191.01 145.53 193.09 152.44 193.09 159.84C193.09 164.14 192.39 168.27 191.09 172.14C202.78 168.08 213 163.85 221.11 159.79C224.53 149.36 226.87 138.68 228.26 127.76C228.84 123.18 229.25 118.58 229.49 113.97C229.78 108.29 229.79 102.62 229.5 96.9397C229.46 96.0997 229.37 95.2697 229.31 94.4797C228.9 94.2197 228.53 94.2797 228.17 94.2597C226.93 94.1797 225.68 94.1197 224.44 94.0397C219.65 93.7297 214.89 93.1097 210.16 92.2697C202.24 90.8597 194.52 88.7397 187.02 85.8397C175.35 81.3197 164.58 75.2397 155.01 67.1397C154.83 66.9897 154.63 66.8497 154.4 66.6797V89.0097C168.46 103.94 187.41 139.66 187.41 139.66V139.65Z" fill="white"/>
<path d="M85.39 152.3C85.39 152.3 87.74 164.23 96.11 180.5C94.62 177.49 93.22 174.42 91.91 171.29C89.33 165.08 87.16 158.75 85.39 152.29V152.3Z" fill="white"/>
<path d="M154.4 198.53C147.07 198.53 140.22 196.49 134.38 192.95C124.52 195.03 115.18 196.69 106.61 197.93C114.12 208.73 124.14 220.18 137.42 230.79C137.44 230.81 137.46 230.82 137.48 230.84C144.08 224.32 149.67 218.79 154.4 214.11V198.53Z" fill="white"/>
<path d="M154.4 198.53C147.07 198.53 140.22 196.49 134.38 192.95C124.52 195.03 115.18 196.69 106.61 197.93C114.12 208.73 124.14 220.18 137.42 230.79C137.44 230.81 137.46 230.82 137.48 230.84C144.08 224.32 149.67 218.79 154.4 214.11V198.53Z" fill="white"/>
<path d="M128.52 188.61C120.65 181.53 115.7 171.26 115.7 159.84C115.7 152.44 117.78 145.53 121.38 139.65C121.38 139.65 140.33 103.93 154.39 89L85.38 152.29C87.16 158.74 89.32 165.08 91.9 171.29C93.2 174.42 94.6 177.49 96.1 180.5C98.01 184.21 100.23 188.15 102.81 192.23C110.49 191.53 119.17 190.31 128.51 188.6L128.52 188.61Z" fill="white"/>
<path d="M128.52 188.61C120.65 181.53 115.7 171.26 115.7 159.84C115.7 152.44 117.78 145.53 121.38 139.65C121.38 139.65 140.33 103.93 154.39 89L85.38 152.29C87.16 158.74 89.32 165.08 91.9 171.29C93.2 174.42 94.6 177.49 96.1 180.5C98.01 184.21 100.23 188.15 102.81 192.23C110.49 191.53 119.17 190.31 128.51 188.6L128.52 188.61Z" fill="white"/>
<path d="M154.4 214.11C177.81 190.98 180.43 188.47 180.69 188.22C173.79 194.62 164.55 198.53 154.4 198.53V214.11Z" fill="white"/>
<path d="M154.4 214.11C177.81 190.98 180.43 188.47 180.69 188.22C173.79 194.62 164.55 198.53 154.4 198.53V214.11Z" fill="white"/>
<path d="M142.62 115.08C142.62 115.08 140.38 117.74 137.39 122.05C134.4 126.36 130.67 132.33 127.73 138.88C126.26 142.16 124.99 145.58 124.11 148.96C123.22 152.34 122.74 155.69 122.69 158.69C122.67 160.19 122.74 161.59 122.89 162.85C123.05 164.11 123.25 165.22 123.48 166.12C123.58 166.58 123.71 166.98 123.81 167.34C123.91 167.69 124.01 167.99 124.09 168.24C124.26 168.73 124.35 168.98 124.35 168.98V169.02C124.48 169.34 124.62 169.66 124.8 169.96C126.31 172.52 129.6 173.37 132.16 171.87C134.72 170.36 135.57 167.07 134.07 164.51C134.07 164.51 133.99 164.37 133.84 164.11C133.76 163.98 133.67 163.82 133.57 163.62C133.47 163.42 133.34 163.2 133.22 162.93C132.96 162.41 132.7 161.74 132.43 160.93C132.16 160.12 131.92 159.17 131.72 158.08C131.32 155.91 131.16 153.18 131.36 150.17C131.55 147.16 132.08 143.88 132.85 140.62C133.62 137.35 134.61 134.1 135.69 131.08C136.76 128.06 137.9 125.27 138.94 122.91C139.98 120.54 140.93 118.6 141.61 117.25C142.29 115.9 142.72 115.14 142.72 115.14C142.73 115.12 142.72 115.09 142.71 115.07C142.69 115.05 142.65 115.05 142.63 115.07L142.62 115.08Z" fill="white"/>
<path d="M137.47 174.56C134.66 174.56 132.38 176.84 132.38 179.65C132.38 182.46 134.66 184.74 137.47 184.74C140.28 184.74 142.56 182.46 142.56 179.65C142.56 176.84 140.28 174.56 137.47 174.56Z" fill="white"/>
<path d="M231.53 141.16C236.93 142.01 240.24 143.66 240.88 146.13C243.32 155.47 206.78 173.1 159.26 185.5C111.75 197.9 71.25 200.38 68.81 191.03C68.16 188.56 70.25 185.51 74.54 182.12C61.84 188.68 54.78 194.62 55.87 198.8C58.44 208.64 105.31 204.94 160.56 190.52C215.81 176.1 258.51 156.43 255.94 146.59C254.85 142.42 245.79 140.68 231.51 141.16H231.53Z" fill="white"/>
<defs>
<linearGradient id="paint0_linear_1360_259" x1="-6.09" y1="155.89" x2="567.93" y2="144.58" gradientUnits="userSpaceOnUse">
<stop stop-color="#770014"/>
<stop offset="0.33" stop-color="#C1384B"/>
<stop offset="0.56" stop-color="#D74259"/>
<stop offset="0.78" stop-color="#E54862"/>
<stop offset="0.97" stop-color="#EA4B66"/>
</linearGradient>
</defs>
</svg>
